CATALOG 0000000000000
FILE "Virtual Casino (USA) (Track 01).bin" BINARY
  TRACK 01 MODE1/2352
    INDEX 01 00:00:00
FILE "Virtual Casino (USA) (Track 02).bin" BINARY
  TRACK 02 AUDIO
    INDEX 00 00:00:00
    INDEX 01 00:02:00
FILE "Virtual Casino (USA) (Track 03).bin" BINARY
  TRACK 03 AUDIO
    INDEX 00 00:00:00
    INDEX 01 00:02:00
FILE "Virtual Casino (USA) (Track 04).bin" BINARY
  TRACK 04 AUDIO
    INDEX 00 00:00:00
    INDEX 01 00:02:00
    INDEX 02 00:22:05
FILE "Virtual Casino (USA) (Track 05).bin" BINARY
  TRACK 05 AUDIO
    INDEX 00 00:00:00
    INDEX 01 00:02:00
FILE "Virtual Casino (USA) (Track 06).bin" BINARY
  TRACK 06 AUDIO
    INDEX 00 00:00:00
    INDEX 01 00:02:02
FILE "Virtual Casino (USA) (Track 07).bin" BINARY
  TRACK 07 AUDIO
    INDEX 00 00:00:00
    INDEX 01 00:02:02
FILE "Virtual Casino (USA) (Track 08).bin" BINARY
  TRACK 08 AUDIO
    INDEX 00 00:00:00
    INDEX 01 00:02:02
FILE "Virtual Casino (USA) (Track 09).bin" BINARY
  TRACK 09 AUDIO
    INDEX 00 00:00:00
    INDEX 01 00:02:00
FILE "Virtual Casino (USA) (Track 10).bin" BINARY
  TRACK 10 AUDIO
    INDEX 00 00:00:00
    INDEX 01 00:02:00
FILE "Virtual Casino (USA) (Track 11).bin" BINARY
  TRACK 11 AUDIO
    INDEX 00 00:00:00
    INDEX 01 00:02:00
FILE "Virtual Casino (USA) (Track 12).bin" BINARY
  TRACK 12 AUDIO
    INDEX 00 00:00:00
    INDEX 01 00:02:02
FILE "Virtual Casino (USA) (Track 13).bin" BINARY
  TRACK 13 AUDIO
    INDEX 00 00:00:00
    INDEX 01 00:02:00
FILE "Virtual Casino (USA) (Track 14).bin" BINARY
  TRACK 14 AUDIO
    INDEX 00 00:00:00
    INDEX 01 00:02:00
FILE "Virtual Casino (USA) (Track 15).bin" BINARY
  TRACK 15 AUDIO
    INDEX 00 00:00:00
    INDEX 01 00:02:00
    INDEX 02 00:07:61
FILE "Virtual Casino (USA) (Track 16).bin" BINARY
  TRACK 16 AUDIO
    INDEX 00 00:00:00
    INDEX 01 00:02:02
    INDEX 02 00:03:22
    INDEX 03 00:05:22
    INDEX 04 00:06:45
    INDEX 05 00:08:45
    INDEX 06 00:09:60
    INDEX 07 00:11:60
    INDEX 08 00:13:45
    INDEX 09 00:15:45
    INDEX 10 00:16:65
FILE "Virtual Casino (USA) (Track 17).bin" BINARY
  TRACK 17 AUDIO
    INDEX 00 00:00:00
    INDEX 01 00:02:02
    INDEX 02 00:03:10
    INDEX 03 00:05:10
    INDEX 04 00:06:48
    INDEX 05 00:08:48
    INDEX 06 00:10:53
    INDEX 07 00:12:53
    INDEX 08 00:14:28
    INDEX 09 00:16:28
    INDEX 10 00:18:65
FILE "Virtual Casino (USA) (Track 18).bin" BINARY
  TRACK 18 AUDIO
    INDEX 00 00:00:00
    INDEX 01 00:02:02
    INDEX 02 00:03:27
    INDEX 03 00:05:27
    INDEX 04 00:06:72
    INDEX 05 00:08:72
    INDEX 06 00:10:02
    INDEX 07 00:12:02
    INDEX 08 00:13:10
FILE "Virtual Casino (USA) (Track 19).bin" BINARY
  TRACK 19 AUDIO
    INDEX 00 00:00:00
    INDEX 01 00:02:00
FILE "Virtual Casino (USA) (Track 20).bin" BINARY
  TRACK 20 AUDIO
    INDEX 00 00:00:00
    INDEX 01 00:02:02
FILE "Virtual Casino (USA) (Track 21).bin" BINARY
  TRACK 21 AUDIO
    INDEX 00 00:00:00
    INDEX 01 00:02:02
FILE "Virtual Casino (USA) (Track 22).bin" BINARY
  TRACK 22 AUDIO
    INDEX 00 00:00:00
    INDEX 01 00:02:00
FILE "Virtual Casino (USA) (Track 23).bin" BINARY
  TRACK 23 AUDIO
    INDEX 00 00:00:00
    INDEX 01 00:02:02
FILE "Virtual Casino (USA) (Track 24).bin" BINARY
  TRACK 24 AUDIO
    INDEX 00 00:00:00
    INDEX 01 00:02:00
FILE "Virtual Casino (USA) (Track 25).bin" BINARY
  TRACK 25 AUDIO
    INDEX 00 00:00:00
    INDEX 01 00:02:00
FILE "Virtual Casino (USA) (Track 26).bin" BINARY
  TRACK 26 AUDIO
    INDEX 00 00:00:00
    INDEX 01 00:02:00
FILE "Virtual Casino (USA) (Track 27).bin" BINARY
  TRACK 27 AUDIO
    INDEX 00 00:00:00
    INDEX 01 00:02:00
FILE "Virtual Casino (USA) (Track 28).bin" BINARY
  TRACK 28 AUDIO
    INDEX 00 00:00:00
    INDEX 01 00:02:00
FILE "Virtual Casino (USA) (Track 29).bin" BINARY
  TRACK 29 AUDIO
    INDEX 00 00:00:00
    INDEX 01 00:02:00
FILE "Virtual Casino (USA) (Track 30).bin" BINARY
  TRACK 30 AUDIO
    INDEX 00 00:00:00
    INDEX 01 00:02:00
    INDEX 02 00:04:04
    INDEX 03 00:06:04
    INDEX 04 00:08:14
    INDEX 05 00:10:14
    INDEX 06 00:13:34
    INDEX 07 00:15:34
    INDEX 08 00:17:69
    INDEX 09 00:19:69
    INDEX 10 00:21:14
    INDEX 11 00:23:14
    INDEX 12 00:25:29
    INDEX 13 00:27:29
